{"title":"The.Cold.Light.Of.Day.BRRip.XviD-RLF","uid":7570784,"size":697585849,"categoryP":"video","categoryS":"movies","magnet":"?xt=urn:btih:339cbb473793a7fae91b3cacf840a1512f1040d7&amp;dn=The.Cold.Light.Of.Day.BRRip.XviD-RLF&amp;tr=udp%3A%2F%2Ftracker.openbittorrent.com%3A80&amp;tr=udp%3A%2F%2Fopen.demonii.com%3A1337&amp;tr=udp%3A%2F%2Ftracker.coppersurfer.tk%3A6969&amp;tr=udp%3A%2F%2Fexodus.desync.com%3A6969","seeders":0,"leechers":1,"uploader":"rlf-rls","files":-1,"time":1345941144,"description":"The.Cold.Light.Of.Day.BRRip.XviD-RLF\n                                            \n\nGENERAL:\n\nComplete name                    : rlf-tclod.avi\nFormat                           : AVI\nFormat/Info                      : Audio Video Interleave\nFile size                        : 659 MiB\nDuration                         : 1h 28mn\nOverall bit rate                 : 1 037 Kbps \nLanguage                         : English\nSubs                             : English\nEncoder                          : Ralf\n\nVideo:\n\nFormat                           : MPEG-4 Visual\nFormat profile                   : Advanced Simple@L5\nFormat settings, BVOP            : 2\nFormat settings, QPel            : No\nFormat settings, GMC             : No warppoints\nFormat settings, Matrix          : H.263\nMuxing mode                      : Packed bitstream\nCodec ID                         : XVID\nDuration                         : 1h 28mn\nBit rate                         : 900 Kbps\nWidth                            : 688 pixels\nHeight                           : 288 pixels\nDisplay aspect ratio             : 2.35:1\nFrame rate                       : 23.976 fps\nColor space                      : YUV\nChroma subsampling               : 4:2:0\nBit depth                        : 8 bits\nScan type                        : Progressive\nBits/(Pixel*Frame)               : 0.189\nStream size                      : 572 MiB (87%)      \nStream size                      : Xvid 64\n\nAudio:\n\nFormat                           : MPEG Audio\nFormat version                   : Version 1\nCodec ID/Hint                    : MP3\nDuration                         : 1h 28mn\nBit rate mode                    : Constant\nBit rate                         : 128 Kbps\nChannel(s)                       : 2 channels\nSampling rate                    : 48.0 KHz\nDelay relative to video          : 6ms\nStream size                      : 81.4 MiB (12%)\nAlignment                        : Split accross interleaves\nInterleave, duration             : 42 ms (1.00 video frame)\nInterleave, preload duration     : 500 ms\n\nMOVIE INFO:\n\nAfter his family is kidnapped during their sailing trip in Spain, \na young Wall Street trader is confronted by the people responsible: \nintelligence agents looking to recover a mysterious briefcase.\n &lt;a href=&quot;\nhttp://www.imdb.com/title/tt1366365/&quot; rel=&quot;nofollow&quot; target=&quot;_NEW&quot;&gt;\nhttp://www.imdb.com/title/tt1366365/&lt;/a&gt;                &lt;a href=&quot;\nhttp://www.filmweb.pl/film/Cold+Light+of+Day,+The-2012-507060&quot; rel=&quot;nofollow&quot; target=&quot;_NEW&quot;&gt;\nhttp://www.filmweb.pl/film/Cold+Light+of+Day,+The-2012-507060&lt;/a&gt;\n                       \n                        \nSOURCE:\n\nHAiDEAF's 720p.BluRay.x264 (THX DoNE)\n\nSCREENS:\n &lt;a href=&quot;\nhttp://image.bayimg.com/mabacaaej.jpg&quot; rel=&quot;nofollow&quot; target=&quot;_NEW&quot;&gt;\nhttp://image.bayimg.com/mabacaaej.jpg&lt;/a&gt; &lt;a href=&quot;\nhttp://image.bayimg.com/mabadaaej.jpg&quot; rel=&quot;nofollow&quot; target=&quot;_NEW&quot;&gt;\nhttp://image.bayimg.com/mabadaaej.jpg&lt;/a&gt; &lt;a href=&quot;\nhttp://image.bayimg.com/mabaeaaej.jpg&quot; rel=&quot;nofollow&quot; target=&quot;_NEW&quot;&gt;\nhttp://image.bayimg.com/mabaeaaej.jpg&lt;/a&gt; &lt;a href=&quot;\nhttp://image.bayimg.com/mabafaaej.jpg&quot; rel=&quot;nofollow&quot; target=&quot;_NEW&quot;&gt;\nhttp://image.bayimg.com/mabafaaej.jpg&lt;/a&gt;","torrent":{"xt":"urn:btih:339cbb473793a7fae91b3cacf840a1512f1040d7","amp;dn":"The.Cold.Light.Of.Day.BRRip.XviD-RLF","amp;tr":["udp%3A%2F%2Ftracker.openbittorrent.com%3A80","udp%3A%2F%2Fopen.demonii.com%3A1337","udp%3A%2F%2Ftracker.coppersurfer.tk%3A6969","udp%3A%2F%2Fexodus.desync.com%3A6969"],"infoHash":"339cbb473793a7fae91b3cacf840a1512f1040d7","infoHashBuffer":{"type":"Buffer","data":[51,156,187,71,55,147,167,250,233,27,60,172,248,64,161,81,47,16,64,215]},"announce":[],"urlList":[]}}